<svg xmlns="http://www.w3.org/2000/svg" version="1.1" xmlns:xlink="http://www.w3.org/1999/xlink" xmlns:svgjs="http://svgjs.dev/svgjs" width="1440" height="560" preserveAspectRatio="none" viewBox="0 0 1440 560"><g mask="url(&quot;#SvgjsMask1433&quot;)" fill="none"><rect width="1440" height="560" x="0" y="0" fill="url(&quot;#SvgjsLinearGradient1434&quot;)"></rect><path d="M1188.727,552.629C1247.27,551.179,1300.665,517.164,1327.238,464.979C1351.685,416.969,1337.531,361.295,1309.625,315.209C1282.902,271.076,1240.237,239.157,1188.727,236.23C1131.48,232.977,1072.332,251.668,1041.432,299.969C1008.275,351.798,1006.814,418.992,1037.802,472.146C1068.579,524.938,1127.638,554.142,1188.727,552.629" fill="rgba(28, 83, 142, 0.4)" class="triangle-float2"></path><path d="M1012.15,403.048C1036.285,401.51,1055.805,385.254,1067.509,364.091C1078.793,343.686,1080.128,319.753,1069.764,298.866C1058.022,275.202,1038.56,253.108,1012.15,252.519C984.991,251.913,963.501,272.673,949.903,296.191C936.287,319.74,929.361,348.518,943.053,372.023C956.674,395.405,985.145,404.769,1012.15,403.048" fill="rgba(28, 83, 142, 0.4)" class="triangle-float2"></path><path d="M355.906,535.897C403.969,538.604,457.128,534.358,484.134,494.507C513.84,450.671,512.555,391.136,484.397,346.29C457.769,303.881,405.981,290.537,355.906,290.288C305.278,290.036,249.642,300.672,225.181,345C201.245,388.376,222.484,440.469,250.476,481.345C274.438,516.337,313.563,533.512,355.906,535.897" fill="rgba(28, 83, 142, 0.4)" class="triangle-float1"></path><path d="M877.3951550040371-13.364263309141638L727.5043423555281 44.173428848852566 785.0420345135224 194.0642414973615 934.9328471620313 136.5265493393673z" fill="rgba(28, 83, 142, 0.4)" class="triangle-float1"></path><path d="M559.324,99.485C583.748,100.633,610.627,96.798,623.643,76.099C637.293,54.391,632.504,26.313,619.071,4.47C606.301,-16.295,583.692,-27.786,559.324,-28.488C533.523,-29.232,505.772,-21.754,493.3,0.845C481.115,22.924,490.663,49.55,504.69,70.507C516.98,88.868,537.254,98.448,559.324,99.485" fill="rgba(28, 83, 142, 0.4)" class="triangle-float2"></path><path d="M1336.9730762775623 287.9401665000834L1466.9013121795965 243.20228713299937 1292.2351969104782 158.01193059804913z" fill="rgba(28, 83, 142, 0.4)" class="triangle-float2"></path></g><defs><mask id="SvgjsMask1433"><rect width="1440" height="560" fill="#ffffff"></rect></mask><linearGradient x1="15.28%" y1="-39.29%" x2="84.72%" y2="139.29%" gradientUnits="userSpaceOnUse" id="SvgjsLinearGradient1434"><stop stop-color="rgba(0, 50, 165, 1)" offset="0.11"></stop><stop stop-color="rgba(14, 42, 71, 1)" offset="0.75"></stop></linearGradient><style>
                @keyframes float1 {
                    0%{transform: translate(0, 0)}
                    50%{transform: translate(-10px, 0)}
                    100%{transform: translate(0, 0)}
                }

                .triangle-float1 {
                    animation: float1 5s infinite;
                }

                @keyframes float2 {
                    0%{transform: translate(0, 0)}
                    50%{transform: translate(-5px, -5px)}
                    100%{transform: translate(0, 0)}
                }

                .triangle-float2 {
                    animation: float2 4s infinite;
                }

                @keyframes float3 {
                    0%{transform: translate(0, 0)}
                    50%{transform: translate(0, -10px)}
                    100%{transform: translate(0, 0)}
                }

                .triangle-float3 {
                    animation: float3 6s infinite;
                }
            </style></defs></svg>